<mxfile host="Electron" agent="Mozilla/5.0 (Windows NT 10.0; Win64; x64) AppleWebKit/537.36 (KHTML, like Gecko) draw.io/28.0.6 Chrome/138.0.7204.100 Electron/37.2.3 Safari/537.36" version="28.0.6">
  <diagram name="Page-1" id="XNCt2PXGuP7tSMQD99Uw">
    <mxGraphModel dx="1426" dy="2010" grid="1" gridSize="10" guides="1" tooltips="1" connect="1" arrows="1" fold="1" page="1" pageScale="1" pageWidth="827" pageHeight="1169" math="0" shadow="0">
      <root>
        <mxCell id="0" />
        <mxCell id="1" parent="0" />
        <mxCell id="86UOIxvu_Tn_AJVzYVQ9-30" value="Customer&amp;nbsp;" style="swimlane;fontStyle=0;childLayout=stackLayout;horizontal=1;startSize=26;fillColor=none;horizontalStack=0;resizeParent=1;resizeParentMax=0;resizeLast=0;collapsible=1;marginBottom=0;whiteSpace=wrap;html=1;" parent="1" vertex="1">
          <mxGeometry x="10" y="213" width="120" height="188" as="geometry">
            <mxRectangle x="180" y="470" width="100" height="30" as="alternateBounds" />
          </mxGeometry>
        </mxCell>
        <mxCell id="86UOIxvu_Tn_AJVzYVQ9-31" value="CustomerID {PK}" style="text;strokeColor=none;fillColor=none;align=left;verticalAlign=top;spacingLeft=4;spacingRight=4;overflow=hidden;rotatable=0;points=[[0,0.5],[1,0.5]];portConstraint=eastwest;whiteSpace=wrap;html=1;" parent="86UOIxvu_Tn_AJVzYVQ9-30" vertex="1">
          <mxGeometry y="26" width="120" height="26" as="geometry" />
        </mxCell>
        <mxCell id="86UOIxvu_Tn_AJVzYVQ9-32" value="FullName&amp;nbsp;" style="text;strokeColor=none;fillColor=none;align=left;verticalAlign=top;spacingLeft=4;spacingRight=4;overflow=hidden;rotatable=0;points=[[0,0.5],[1,0.5]];portConstraint=eastwest;whiteSpace=wrap;html=1;" parent="86UOIxvu_Tn_AJVzYVQ9-30" vertex="1">
          <mxGeometry y="52" width="120" height="26" as="geometry" />
        </mxCell>
        <mxCell id="86UOIxvu_Tn_AJVzYVQ9-33" value="Email&lt;span style=&quot;white-space: pre;&quot;&gt;&#x9;&lt;/span&gt;" style="text;strokeColor=none;fillColor=none;align=left;verticalAlign=top;spacingLeft=4;spacingRight=4;overflow=hidden;rotatable=0;points=[[0,0.5],[1,0.5]];portConstraint=eastwest;whiteSpace=wrap;html=1;" parent="86UOIxvu_Tn_AJVzYVQ9-30" vertex="1">
          <mxGeometry y="78" width="120" height="22" as="geometry" />
        </mxCell>
        <mxCell id="86UOIxvu_Tn_AJVzYVQ9-61" value="AddressLine1" style="text;strokeColor=none;fillColor=none;align=left;verticalAlign=top;spacingLeft=4;spacingRight=4;overflow=hidden;rotatable=0;points=[[0,0.5],[1,0.5]];portConstraint=eastwest;whiteSpace=wrap;html=1;" parent="86UOIxvu_Tn_AJVzYVQ9-30" vertex="1">
          <mxGeometry y="100" width="120" height="22" as="geometry" />
        </mxCell>
        <mxCell id="86UOIxvu_Tn_AJVzYVQ9-62" value="AddressLine2" style="text;strokeColor=none;fillColor=none;align=left;verticalAlign=top;spacingLeft=4;spacingRight=4;overflow=hidden;rotatable=0;points=[[0,0.5],[1,0.5]];portConstraint=eastwest;whiteSpace=wrap;html=1;" parent="86UOIxvu_Tn_AJVzYVQ9-30" vertex="1">
          <mxGeometry y="122" width="120" height="22" as="geometry" />
        </mxCell>
        <mxCell id="86UOIxvu_Tn_AJVzYVQ9-63" value="Suburb" style="text;strokeColor=none;fillColor=none;align=left;verticalAlign=top;spacingLeft=4;spacingRight=4;overflow=hidden;rotatable=0;points=[[0,0.5],[1,0.5]];portConstraint=eastwest;whiteSpace=wrap;html=1;" parent="86UOIxvu_Tn_AJVzYVQ9-30" vertex="1">
          <mxGeometry y="144" width="120" height="22" as="geometry" />
        </mxCell>
        <mxCell id="86UOIxvu_Tn_AJVzYVQ9-64" value="City" style="text;strokeColor=none;fillColor=none;align=left;verticalAlign=top;spacingLeft=4;spacingRight=4;overflow=hidden;rotatable=0;points=[[0,0.5],[1,0.5]];portConstraint=eastwest;whiteSpace=wrap;html=1;" parent="86UOIxvu_Tn_AJVzYVQ9-30" vertex="1">
          <mxGeometry y="166" width="120" height="22" as="geometry" />
        </mxCell>
        <mxCell id="86UOIxvu_Tn_AJVzYVQ9-34" value="Order" style="swimlane;fontStyle=0;childLayout=stackLayout;horizontal=1;startSize=26;fillColor=none;horizontalStack=0;resizeParent=1;resizeParentMax=0;resizeLast=0;collapsible=1;marginBottom=0;whiteSpace=wrap;html=1;" parent="1" vertex="1">
          <mxGeometry x="200" y="213" width="140" height="130" as="geometry" />
        </mxCell>
        <mxCell id="86UOIxvu_Tn_AJVzYVQ9-35" value="OrderID {PK}" style="text;strokeColor=none;fillColor=none;align=left;verticalAlign=top;spacingLeft=4;spacingRight=4;overflow=hidden;rotatable=0;points=[[0,0.5],[1,0.5]];portConstraint=eastwest;whiteSpace=wrap;html=1;" parent="86UOIxvu_Tn_AJVzYVQ9-34" vertex="1">
          <mxGeometry y="26" width="140" height="26" as="geometry" />
        </mxCell>
        <mxCell id="86UOIxvu_Tn_AJVzYVQ9-37" value="CustomerID {FK}" style="text;strokeColor=none;fillColor=none;align=left;verticalAlign=top;spacingLeft=4;spacingRight=4;overflow=hidden;rotatable=0;points=[[0,0.5],[1,0.5]];portConstraint=eastwest;whiteSpace=wrap;html=1;" parent="86UOIxvu_Tn_AJVzYVQ9-34" vertex="1">
          <mxGeometry y="52" width="140" height="26" as="geometry" />
        </mxCell>
        <mxCell id="86UOIxvu_Tn_AJVzYVQ9-68" value="OrderStatus" style="text;strokeColor=none;fillColor=none;align=left;verticalAlign=top;spacingLeft=4;spacingRight=4;overflow=hidden;rotatable=0;points=[[0,0.5],[1,0.5]];portConstraint=eastwest;whiteSpace=wrap;html=1;" parent="86UOIxvu_Tn_AJVzYVQ9-34" vertex="1">
          <mxGeometry y="78" width="140" height="26" as="geometry" />
        </mxCell>
        <mxCell id="86UOIxvu_Tn_AJVzYVQ9-69" value="TotalPrice" style="text;strokeColor=none;fillColor=none;align=left;verticalAlign=top;spacingLeft=4;spacingRight=4;overflow=hidden;rotatable=0;points=[[0,0.5],[1,0.5]];portConstraint=eastwest;whiteSpace=wrap;html=1;" parent="86UOIxvu_Tn_AJVzYVQ9-34" vertex="1">
          <mxGeometry y="104" width="140" height="26" as="geometry" />
        </mxCell>
        <mxCell id="86UOIxvu_Tn_AJVzYVQ9-38" value="Review&amp;nbsp;" style="swimlane;fontStyle=0;childLayout=stackLayout;horizontal=1;startSize=26;fillColor=none;horizontalStack=0;resizeParent=1;resizeParentMax=0;resizeLast=0;collapsible=1;marginBottom=0;whiteSpace=wrap;html=1;" parent="1" vertex="1">
          <mxGeometry x="890" y="213" width="140" height="156" as="geometry" />
        </mxCell>
        <mxCell id="86UOIxvu_Tn_AJVzYVQ9-39" value="ReviewID {PK}" style="text;strokeColor=none;fillColor=none;align=left;verticalAlign=top;spacingLeft=4;spacingRight=4;overflow=hidden;rotatable=0;points=[[0,0.5],[1,0.5]];portConstraint=eastwest;whiteSpace=wrap;html=1;" parent="86UOIxvu_Tn_AJVzYVQ9-38" vertex="1">
          <mxGeometry y="26" width="140" height="26" as="geometry" />
        </mxCell>
        <mxCell id="86UOIxvu_Tn_AJVzYVQ9-41" value="BookID {FK}" style="text;strokeColor=none;fillColor=none;align=left;verticalAlign=top;spacingLeft=4;spacingRight=4;overflow=hidden;rotatable=0;points=[[0,0.5],[1,0.5]];portConstraint=eastwest;whiteSpace=wrap;html=1;" parent="86UOIxvu_Tn_AJVzYVQ9-38" vertex="1">
          <mxGeometry y="52" width="140" height="26" as="geometry" />
        </mxCell>
        <mxCell id="86UOIxvu_Tn_AJVzYVQ9-40" value="CustomerID {FK}" style="text;strokeColor=none;fillColor=none;align=left;verticalAlign=top;spacingLeft=4;spacingRight=4;overflow=hidden;rotatable=0;points=[[0,0.5],[1,0.5]];portConstraint=eastwest;whiteSpace=wrap;html=1;" parent="86UOIxvu_Tn_AJVzYVQ9-38" vertex="1">
          <mxGeometry y="78" width="140" height="26" as="geometry" />
        </mxCell>
        <mxCell id="86UOIxvu_Tn_AJVzYVQ9-75" value="Rating" style="text;strokeColor=none;fillColor=none;align=left;verticalAlign=top;spacingLeft=4;spacingRight=4;overflow=hidden;rotatable=0;points=[[0,0.5],[1,0.5]];portConstraint=eastwest;whiteSpace=wrap;html=1;" parent="86UOIxvu_Tn_AJVzYVQ9-38" vertex="1">
          <mxGeometry y="104" width="140" height="26" as="geometry" />
        </mxCell>
        <mxCell id="86UOIxvu_Tn_AJVzYVQ9-76" value="ReviewText" style="text;strokeColor=none;fillColor=none;align=left;verticalAlign=top;spacingLeft=4;spacingRight=4;overflow=hidden;rotatable=0;points=[[0,0.5],[1,0.5]];portConstraint=eastwest;whiteSpace=wrap;html=1;" parent="86UOIxvu_Tn_AJVzYVQ9-38" vertex="1">
          <mxGeometry y="130" width="140" height="26" as="geometry" />
        </mxCell>
        <mxCell id="86UOIxvu_Tn_AJVzYVQ9-42" value="Payment&amp;nbsp;" style="swimlane;fontStyle=0;childLayout=stackLayout;horizontal=1;startSize=26;fillColor=none;horizontalStack=0;resizeParent=1;resizeParentMax=0;resizeLast=0;collapsible=1;marginBottom=0;whiteSpace=wrap;html=1;" parent="1" vertex="1">
          <mxGeometry x="430" y="213" width="140" height="156" as="geometry" />
        </mxCell>
        <mxCell id="86UOIxvu_Tn_AJVzYVQ9-43" value="PaymentID {PK}" style="text;strokeColor=none;fillColor=none;align=left;verticalAlign=top;spacingLeft=4;spacingRight=4;overflow=hidden;rotatable=0;points=[[0,0.5],[1,0.5]];portConstraint=eastwest;whiteSpace=wrap;html=1;" parent="86UOIxvu_Tn_AJVzYVQ9-42" vertex="1">
          <mxGeometry y="26" width="140" height="26" as="geometry" />
        </mxCell>
        <mxCell id="86UOIxvu_Tn_AJVzYVQ9-71" value="OrderID {FK}" style="text;strokeColor=none;fillColor=none;align=left;verticalAlign=top;spacingLeft=4;spacingRight=4;overflow=hidden;rotatable=0;points=[[0,0.5],[1,0.5]];portConstraint=eastwest;whiteSpace=wrap;html=1;" parent="86UOIxvu_Tn_AJVzYVQ9-42" vertex="1">
          <mxGeometry y="52" width="140" height="26" as="geometry" />
        </mxCell>
        <mxCell id="86UOIxvu_Tn_AJVzYVQ9-72" value="PaymentDate" style="text;strokeColor=none;fillColor=none;align=left;verticalAlign=top;spacingLeft=4;spacingRight=4;overflow=hidden;rotatable=0;points=[[0,0.5],[1,0.5]];portConstraint=eastwest;whiteSpace=wrap;html=1;" parent="86UOIxvu_Tn_AJVzYVQ9-42" vertex="1">
          <mxGeometry y="78" width="140" height="26" as="geometry" />
        </mxCell>
        <mxCell id="86UOIxvu_Tn_AJVzYVQ9-73" value="PaymentAmount" style="text;strokeColor=none;fillColor=none;align=left;verticalAlign=top;spacingLeft=4;spacingRight=4;overflow=hidden;rotatable=0;points=[[0,0.5],[1,0.5]];portConstraint=eastwest;whiteSpace=wrap;html=1;" parent="86UOIxvu_Tn_AJVzYVQ9-42" vertex="1">
          <mxGeometry y="104" width="140" height="26" as="geometry" />
        </mxCell>
        <mxCell id="86UOIxvu_Tn_AJVzYVQ9-74" value="PaymentMethod" style="text;strokeColor=none;fillColor=none;align=left;verticalAlign=top;spacingLeft=4;spacingRight=4;overflow=hidden;rotatable=0;points=[[0,0.5],[1,0.5]];portConstraint=eastwest;whiteSpace=wrap;html=1;" parent="86UOIxvu_Tn_AJVzYVQ9-42" vertex="1">
          <mxGeometry y="130" width="140" height="26" as="geometry" />
        </mxCell>
        <mxCell id="86UOIxvu_Tn_AJVzYVQ9-46" value="Book" style="swimlane;fontStyle=0;childLayout=stackLayout;horizontal=1;startSize=26;fillColor=none;horizontalStack=0;resizeParent=1;resizeParentMax=0;resizeLast=0;collapsible=1;marginBottom=0;whiteSpace=wrap;html=1;" parent="1" vertex="1">
          <mxGeometry x="650" y="213" width="140" height="182" as="geometry" />
        </mxCell>
        <mxCell id="86UOIxvu_Tn_AJVzYVQ9-47" value="BookID {PK}" style="text;strokeColor=none;fillColor=none;align=left;verticalAlign=top;spacingLeft=4;spacingRight=4;overflow=hidden;rotatable=0;points=[[0,0.5],[1,0.5]];portConstraint=eastwest;whiteSpace=wrap;html=1;" parent="86UOIxvu_Tn_AJVzYVQ9-46" vertex="1">
          <mxGeometry y="26" width="140" height="26" as="geometry" />
        </mxCell>
        <mxCell id="86UOIxvu_Tn_AJVzYVQ9-48" value="Title" style="text;strokeColor=none;fillColor=none;align=left;verticalAlign=top;spacingLeft=4;spacingRight=4;overflow=hidden;rotatable=0;points=[[0,0.5],[1,0.5]];portConstraint=eastwest;whiteSpace=wrap;html=1;" parent="86UOIxvu_Tn_AJVzYVQ9-46" vertex="1">
          <mxGeometry y="52" width="140" height="26" as="geometry" />
        </mxCell>
        <mxCell id="86UOIxvu_Tn_AJVzYVQ9-49" value="Author" style="text;strokeColor=none;fillColor=none;align=left;verticalAlign=top;spacingLeft=4;spacingRight=4;overflow=hidden;rotatable=0;points=[[0,0.5],[1,0.5]];portConstraint=eastwest;whiteSpace=wrap;html=1;" parent="86UOIxvu_Tn_AJVzYVQ9-46" vertex="1">
          <mxGeometry y="78" width="140" height="26" as="geometry" />
        </mxCell>
        <mxCell id="86UOIxvu_Tn_AJVzYVQ9-65" value="Genre" style="text;strokeColor=none;fillColor=none;align=left;verticalAlign=top;spacingLeft=4;spacingRight=4;overflow=hidden;rotatable=0;points=[[0,0.5],[1,0.5]];portConstraint=eastwest;whiteSpace=wrap;html=1;" parent="86UOIxvu_Tn_AJVzYVQ9-46" vertex="1">
          <mxGeometry y="104" width="140" height="26" as="geometry" />
        </mxCell>
        <mxCell id="86UOIxvu_Tn_AJVzYVQ9-66" value="Price" style="text;strokeColor=none;fillColor=none;align=left;verticalAlign=top;spacingLeft=4;spacingRight=4;overflow=hidden;rotatable=0;points=[[0,0.5],[1,0.5]];portConstraint=eastwest;whiteSpace=wrap;html=1;" parent="86UOIxvu_Tn_AJVzYVQ9-46" vertex="1">
          <mxGeometry y="130" width="140" height="26" as="geometry" />
        </mxCell>
        <mxCell id="86UOIxvu_Tn_AJVzYVQ9-67" value="QuantityInStock" style="text;strokeColor=none;fillColor=none;align=left;verticalAlign=top;spacingLeft=4;spacingRight=4;overflow=hidden;rotatable=0;points=[[0,0.5],[1,0.5]];portConstraint=eastwest;whiteSpace=wrap;html=1;" parent="86UOIxvu_Tn_AJVzYVQ9-46" vertex="1">
          <mxGeometry y="156" width="140" height="26" as="geometry" />
        </mxCell>
        <mxCell id="86UOIxvu_Tn_AJVzYVQ9-94" value="OrderBook" style="swimlane;fontStyle=0;childLayout=stackLayout;horizontal=1;startSize=26;fillColor=none;horizontalStack=0;resizeParent=1;resizeParentMax=0;resizeLast=0;collapsible=1;marginBottom=0;whiteSpace=wrap;html=1;" parent="1" vertex="1">
          <mxGeometry x="380" y="28" width="140" height="104" as="geometry" />
        </mxCell>
        <mxCell id="86UOIxvu_Tn_AJVzYVQ9-95" value="OrderID {PK2} {FK1}" style="text;strokeColor=none;fillColor=none;align=left;verticalAlign=top;spacingLeft=4;spacingRight=4;overflow=hidden;rotatable=0;points=[[0,0.5],[1,0.5]];portConstraint=eastwest;whiteSpace=wrap;html=1;" parent="86UOIxvu_Tn_AJVzYVQ9-94" vertex="1">
          <mxGeometry y="26" width="140" height="26" as="geometry" />
        </mxCell>
        <mxCell id="86UOIxvu_Tn_AJVzYVQ9-98" value="BookID {PK2} {FK2}&lt;div&gt;&lt;br&gt;&lt;/div&gt;" style="text;strokeColor=none;fillColor=none;align=left;verticalAlign=top;spacingLeft=4;spacingRight=4;overflow=hidden;rotatable=0;points=[[0,0.5],[1,0.5]];portConstraint=eastwest;whiteSpace=wrap;html=1;" parent="86UOIxvu_Tn_AJVzYVQ9-94" vertex="1">
          <mxGeometry y="52" width="140" height="26" as="geometry" />
        </mxCell>
        <mxCell id="86UOIxvu_Tn_AJVzYVQ9-99" value="QuantityOrdered" style="text;strokeColor=none;fillColor=none;align=left;verticalAlign=top;spacingLeft=4;spacingRight=4;overflow=hidden;rotatable=0;points=[[0,0.5],[1,0.5]];portConstraint=eastwest;whiteSpace=wrap;html=1;" parent="86UOIxvu_Tn_AJVzYVQ9-94" vertex="1">
          <mxGeometry y="78" width="140" height="26" as="geometry" />
        </mxCell>
        <mxCell id="86UOIxvu_Tn_AJVzYVQ9-127" value="" style="endArrow=none;html=1;rounded=0;" parent="1" edge="1">
          <mxGeometry width="50" height="50" relative="1" as="geometry">
            <mxPoint x="340" y="279" as="sourcePoint" />
            <mxPoint x="430" y="279.5" as="targetPoint" />
          </mxGeometry>
        </mxCell>
        <mxCell id="86UOIxvu_Tn_AJVzYVQ9-129" value="" style="line;strokeWidth=1;fillColor=none;align=left;verticalAlign=middle;spacingTop=-1;spacingLeft=3;spacingRight=3;rotatable=0;labelPosition=right;points=[];portConstraint=eastwest;strokeColor=inherit;" parent="1" vertex="1">
          <mxGeometry x="130" y="280" width="70" height="8" as="geometry" />
        </mxCell>
        <mxCell id="86UOIxvu_Tn_AJVzYVQ9-132" value="1..1" style="text;html=1;align=center;verticalAlign=middle;whiteSpace=wrap;rounded=0;" parent="1" vertex="1">
          <mxGeometry x="110" y="258" width="60" height="30" as="geometry" />
        </mxCell>
        <mxCell id="86UOIxvu_Tn_AJVzYVQ9-134" value="places" style="text;html=1;align=center;verticalAlign=middle;whiteSpace=wrap;rounded=0;" parent="1" vertex="1">
          <mxGeometry x="135" y="276" width="60" height="30" as="geometry" />
        </mxCell>
        <mxCell id="86UOIxvu_Tn_AJVzYVQ9-135" value="1" style="text;html=1;align=center;verticalAlign=middle;whiteSpace=wrap;rounded=0;" parent="1" vertex="1">
          <mxGeometry x="324" y="258" width="60" height="30" as="geometry" />
        </mxCell>
        <mxCell id="86UOIxvu_Tn_AJVzYVQ9-136" value="1" style="text;html=1;align=center;verticalAlign=middle;whiteSpace=wrap;rounded=0;" parent="1" vertex="1">
          <mxGeometry x="384" y="258" width="60" height="30" as="geometry" />
        </mxCell>
        <mxCell id="86UOIxvu_Tn_AJVzYVQ9-139" value="reviews" style="text;html=1;align=center;verticalAlign=middle;whiteSpace=wrap;rounded=0;" parent="1" vertex="1">
          <mxGeometry x="470" y="450" width="60" height="30" as="geometry" />
        </mxCell>
        <mxCell id="86UOIxvu_Tn_AJVzYVQ9-140" value="1" style="text;html=1;align=center;verticalAlign=middle;whiteSpace=wrap;rounded=0;" parent="1" vertex="1">
          <mxGeometry x="110" y="313" width="60" height="30" as="geometry" />
        </mxCell>
        <mxCell id="86UOIxvu_Tn_AJVzYVQ9-141" value="0..*" style="text;html=1;align=center;verticalAlign=middle;whiteSpace=wrap;rounded=0;" parent="1" vertex="1">
          <mxGeometry x="810" y="276" width="140" height="30" as="geometry" />
        </mxCell>
        <mxCell id="86UOIxvu_Tn_AJVzYVQ9-150" value="1" style="text;html=1;align=center;verticalAlign=middle;whiteSpace=wrap;rounded=0;" parent="1" vertex="1">
          <mxGeometry x="770" y="228" width="60" height="30" as="geometry" />
        </mxCell>
        <mxCell id="86UOIxvu_Tn_AJVzYVQ9-151" value="0..*" style="text;html=1;align=center;verticalAlign=middle;whiteSpace=wrap;rounded=0;" parent="1" vertex="1">
          <mxGeometry x="850" y="246" width="60" height="30" as="geometry" />
        </mxCell>
        <mxCell id="86UOIxvu_Tn_AJVzYVQ9-152" value="Text" style="text;html=1;align=center;verticalAlign=middle;whiteSpace=wrap;rounded=0;" parent="1" vertex="1">
          <mxGeometry x="460" y="310" width="60" height="30" as="geometry" />
        </mxCell>
        <mxCell id="86UOIxvu_Tn_AJVzYVQ9-138" style="edgeStyle=orthogonalEdgeStyle;rounded=0;orthogonalLoop=1;jettySize=auto;html=1;exitX=1;exitY=0.5;exitDx=0;exitDy=0;entryX=0;entryY=0.5;entryDx=0;entryDy=0;endArrow=none;endFill=0;" parent="1" edge="1">
          <mxGeometry relative="1" as="geometry">
            <mxPoint x="130" y="278" as="sourcePoint" />
            <mxPoint x="890" y="278" as="targetPoint" />
            <Array as="points">
              <mxPoint x="130" y="320" />
              <mxPoint x="170" y="320" />
              <mxPoint x="170" y="496" />
              <mxPoint x="850" y="496" />
              <mxPoint x="850" y="300" />
              <mxPoint x="890" y="300" />
            </Array>
          </mxGeometry>
        </mxCell>
        <mxCell id="86UOIxvu_Tn_AJVzYVQ9-154" value="" style="endArrow=classic;html=1;rounded=0;" parent="1" edge="1">
          <mxGeometry width="50" height="50" relative="1" as="geometry">
            <mxPoint x="145" y="300" as="sourcePoint" />
            <mxPoint x="185" y="300" as="targetPoint" />
          </mxGeometry>
        </mxCell>
        <mxCell id="86UOIxvu_Tn_AJVzYVQ9-156" value="" style="endArrow=classic;html=1;rounded=0;" parent="1" edge="1">
          <mxGeometry width="50" height="50" relative="1" as="geometry">
            <mxPoint x="470" y="480" as="sourcePoint" />
            <mxPoint x="530" y="480" as="targetPoint" />
            <Array as="points">
              <mxPoint x="500" y="480" />
            </Array>
          </mxGeometry>
        </mxCell>
        <mxCell id="86UOIxvu_Tn_AJVzYVQ9-157" style="edgeStyle=orthogonalEdgeStyle;rounded=0;orthogonalLoop=1;jettySize=auto;html=1;exitX=1;exitY=0.5;exitDx=0;exitDy=0;entryX=0;entryY=0.5;entryDx=0;entryDy=0;endArrow=none;endFill=0;" parent="1" source="86UOIxvu_Tn_AJVzYVQ9-47" target="86UOIxvu_Tn_AJVzYVQ9-41" edge="1">
          <mxGeometry relative="1" as="geometry" />
        </mxCell>
        <mxCell id="86UOIxvu_Tn_AJVzYVQ9-158" style="edgeStyle=orthogonalEdgeStyle;rounded=0;orthogonalLoop=1;jettySize=auto;html=1;exitX=1;exitY=0.5;exitDx=0;exitDy=0;entryX=0;entryY=0.5;entryDx=0;entryDy=0;endArrow=none;endFill=0;" parent="1" source="86UOIxvu_Tn_AJVzYVQ9-35" target="86UOIxvu_Tn_AJVzYVQ9-95" edge="1">
          <mxGeometry relative="1" as="geometry" />
        </mxCell>
        <mxCell id="86UOIxvu_Tn_AJVzYVQ9-159" value="1" style="text;html=1;align=center;verticalAlign=middle;whiteSpace=wrap;rounded=0;" parent="1" vertex="1">
          <mxGeometry x="320" y="220" width="60" height="30" as="geometry" />
        </mxCell>
        <mxCell id="86UOIxvu_Tn_AJVzYVQ9-160" value="1..*" style="text;html=1;align=center;verticalAlign=middle;whiteSpace=wrap;rounded=0;" parent="1" vertex="1">
          <mxGeometry x="330" y="39" width="60" height="30" as="geometry" />
        </mxCell>
        <mxCell id="86UOIxvu_Tn_AJVzYVQ9-161" style="edgeStyle=orthogonalEdgeStyle;rounded=0;orthogonalLoop=1;jettySize=auto;html=1;exitX=1;exitY=0.5;exitDx=0;exitDy=0;entryX=0;entryY=0.5;entryDx=0;entryDy=0;endArrow=none;endFill=0;" parent="1" source="86UOIxvu_Tn_AJVzYVQ9-98" target="86UOIxvu_Tn_AJVzYVQ9-47" edge="1">
          <mxGeometry relative="1" as="geometry" />
        </mxCell>
        <mxCell id="86UOIxvu_Tn_AJVzYVQ9-162" value="1..*" style="text;html=1;align=center;verticalAlign=middle;whiteSpace=wrap;rounded=0;" parent="1" vertex="1">
          <mxGeometry x="540" y="-170" width="60" height="30" as="geometry" />
        </mxCell>
        <mxCell id="86UOIxvu_Tn_AJVzYVQ9-163" value="0..*" style="text;html=1;align=center;verticalAlign=middle;whiteSpace=wrap;rounded=0;" parent="1" vertex="1">
          <mxGeometry x="160" y="258" width="60" height="30" as="geometry" />
        </mxCell>
        <mxCell id="86UOIxvu_Tn_AJVzYVQ9-164" value="0..*" style="text;html=1;align=center;verticalAlign=middle;whiteSpace=wrap;rounded=0;" parent="1" vertex="1">
          <mxGeometry x="510" y="65" width="60" height="30" as="geometry" />
        </mxCell>
        <mxCell id="86UOIxvu_Tn_AJVzYVQ9-165" value="1" style="text;html=1;align=center;verticalAlign=middle;whiteSpace=wrap;rounded=0;" parent="1" vertex="1">
          <mxGeometry x="610" y="228" width="60" height="30" as="geometry" />
        </mxCell>
      </root>
    </mxGraphModel>
  </diagram>
</mxfile>
